HIERARCHY
ROOT Bip001_Pelvis
{
  OFFSET 2.11667 93.5892 -0.791448
  CHANNELS 6 Xposition Yposition Zposition Zrotation Xrotation Yrotation
  JOINT Bip001_Spine
  {
    OFFSET 1.44608e-005 10.4157 -0.0118244
    CHANNELS 3 Zrotation Xrotation Yrotation
    JOINT Bip001_L_Thigh
    {
      OFFSET 11.2582 -10.4157 0.0118432
      CHANNELS 3 Zrotation Xrotation Yrotation
      JOINT Bip001_L_Calf
      {
        OFFSET -0.720717 -44.8687 0.366937
        CHANNELS 3 Zrotation Xrotation Yrotation
        JOINT Bip001_L_Foot
        {
          OFFSET -0.664439 -41.3745 -3.62995
          CHANNELS 3 Zrotation Xrotation Yrotation
          JOINT Bip001_L_Toe0
          {
            OFFSET 0.0541048 -10.4146 13.4033
            CHANNELS 3 Zrotation Xrotation Yrotation
            End Site
            {
              OFFSET -1.04503e-005 0 7.70137
            }
          }
        }
      }
    }
    JOINT Bip001_R_Thigh
    {
      OFFSET -11.2582 -10.4156 0.0118122
      CHANNELS 3 Zrotation Xrotation Yrotation
      JOINT Bip001_R_Calf
      {
        OFFSET 0.72059 -44.8687 0.36676
        CHANNELS 3 Zrotation Xrotation Yrotation
        JOINT Bip001_R_Foot
        {
          OFFSET 0.664321 -41.3745 -3.62979
          CHANNELS 3 Zrotation Xrotation Yrotation
          JOINT Bip001_R_Toe0
          {
            OFFSET -0.05417 -10.4146 13.4033
            CHANNELS 3 Zrotation Xrotation Yrotation
            End Site
            {
              OFFSET -1.04873e-005 0 7.70137
            }
          }
        }
      }
    }
    JOINT Bip001_Spine1
    {
      OFFSET 1.90638e-005 14.8539 1.10727
      CHANNELS 3 Zrotation Xrotation Yrotation
      JOINT Bip001_Spine2
      {
        OFFSET 2.28934e-005 14.7848 -1.7233
        CHANNELS 3 Zrotation Xrotation Yrotation
        JOINT Bip001_Neck
        {
          OFFSET 2.24514e-005 15.6905 -0.498826
          CHANNELS 3 Zrotation Xrotation Yrotation
          JOINT Bip001_L_Clavicle
          {
            OFFSET 6.17691 -0.000591152 0.00852867
            CHANNELS 3 Zrotation Xrotation Yrotation
            JOINT Bip001_L_UpperArm
            {
              OFFSET 11.773 -0.0611878 0.00197697
              CHANNELS 3 Zrotation Xrotation Yrotation
              JOINT Bip001_L_Forearm
              {
                OFFSET 26.4515 0.0817567 -2.1958
                CHANNELS 3 Zrotation Xrotation Yrotation
                JOINT Bip001_L_Hand
                {
                  OFFSET 32.8677 0.156744 1.67112
                  CHANNELS 3 Zrotation Xrotation Yrotation
                  JOINT Bip001_L_Finger0
                  {
                    OFFSET 6.16267 -2.25228 6.01669
                    CHANNELS 3 Zrotation Xrotation Yrotation
                    End Site
                    {
                      OFFSET 4.30498 -1.46664 0.618143
                    }
                  }
                  JOINT Bip001_L_Finger1
                  {
                    OFFSET 11.2957 -0.71838 -0.201961
                    CHANNELS 3 Zrotation Xrotation Yrotation
                    End Site
                    {
                      OFFSET 6.31952 -0.405166 -0.0802296
                    }
                  }
                }
              }
            }
          }
          JOINT Bip001_R_Clavicle
          {
            OFFSET -6.17691 -0.000574027 0.00851165
            CHANNELS 3 Zrotation Xrotation Yrotation
            JOINT Bip001_R_UpperArm
            {
              OFFSET -11.773 -0.0611516 0.00194365
              CHANNELS 3 Zrotation Xrotation Yrotation
              JOINT Bip001_R_Forearm
              {
                OFFSET -26.4514 0.0822335 -2.19736
                CHANNELS 3 Zrotation Xrotation Yrotation
                JOINT Bip001_R_Hand
                {
                  OFFSET -32.8677 0.156816 1.67144
                  CHANNELS 3 Zrotation Xrotation Yrotation
                  JOINT Bip001_R_Finger0
                  {
                    OFFSET -6.16269 -2.25224 6.01673
                    CHANNELS 3 Zrotation Xrotation Yrotation
                    End Site
                    {
                      OFFSET -4.30499 -1.46661 0.618137
                    }
                  }
                  JOINT Bip001_R_Finger1
                  {
                    OFFSET -11.2957 -0.718342 -0.201995
                    CHANNELS 3 Zrotation Xrotation Yrotation
                    End Site
                    {
                      OFFSET -6.31951 -0.405145 -0.080248
                    }
                  }
                }
              }
            }
          }
          JOINT Bip001_Head
          {
            OFFSET 1.11782e-005 11.4912 2.09908
            CHANNELS 3 Zrotation Xrotation Yrotation
            End Site
            {
              OFFSET 2.95144e-005 21.2823 -2.83069e-005
            }
          }
        }
      }
    }
  }
}
MOTION
Frames:	5
Frame Time:	0.0333333
-15.0072 90.2959 6.2627 -7.06944 8.65954 -121.442 0.418679 2.31366 -1.45432 5.36006 0.740028 1.10061 0.047281 25.354 -0.435122 -2.12786 8.88174 -32.8713 -2.03136e-006 -4.944e-007 2.25684e-006 1.5306 -12.618 5.5533 -0.124351 35.4053 0.678512 -3.05015 -9.36474 24.0962 -1.75778e-007 -5.55602e-007 -9.28657e-009 0.897169 4.61596 -2.92926 0.897165 4.61595 -2.92924 -8.23841 3.76925 -20.4916 -9.77782 -9.24076 28.8828 -28.8268 27.1862 -49.739 -0.572475 0.0465487 -5.71387 5.25609 22.856 -5.6677 -9.91438e-015 -1.56543e-015 -0 -8.3179e-015 6.70898e-016 -0 19.7329 0.631278 2.11418 51.1787 46.2142 18.8142 0.415882 0.0304811 4.15427 -9.5354 -3.01555 -8.2411 -6.36111e-015 1.59028e-015 7.95139e-016 -3.18055e-015 0 -0 16.5197 1.04626 -28.0804 
-15.5961 90.3539 7.03516 -6.53621 8.72011 -123.464 0.447585 2.20818 -1.44552 4.50628 1.01003 1.58718 0.0439114 24.9831 -0.425941 -2.26146 8.83843 -30.5571 -2.03136e-006 -4.944e-007 2.25684e-006 0.898818 -12.9266 5.80683 -0.11853 34.8984 0.667592 -3.24527 -9.18387 24.3428 -1.75778e-007 -5.55602e-007 -9.28657e-009 0.951946 4.40429 -2.91143 0.951932 4.40428 -2.91143 -7.49509 3.43749 -20.1302 -10.1714 -8.92327 28.5575 -29.9521 27.4928 -49.7964 -0.864295 0.0927112 -8.6571 6.46119 18.9605 -5.43044 2.78299e-015 -7.95139e-016 -0 4.77083e-015 -1.98785e-015 -0 18.8514 0.536506 1.74982 54.1719 42.9917 12.8716 0.939058 0.109633 9.42907 -6.17485 4.34628 -10.0528 4.41391e-032 -1.59028e-015 1.59028e-015 -3.18055e-015 -1.59028e-015 -0 15.9954 0.326697 -27.6656 
-16.1149 90.3575 7.8251 -6.06203 8.84066 -126.123 0.4397 2.16789 -1.36839 3.7523 1.3127 2.81885 0.0433073 24.8789 -0.41913 -2.54349 8.76576 -29.949 -2.03136e-006 -4.944e-007 2.25684e-006 0.312578 -13.5257 6.11107 -0.117349 34.7096 0.659295 -3.11559 -8.85735 23.8602 -1.75778e-007 -5.55602e-007 -9.28657e-009 0.932096 4.32471 -2.75632 0.932119 4.32469 -2.75632 -6.69371 2.98254 -19.5927 -10.8034 -8.50566 27.9981 -30.3866 27.9933 -49.4825 -1.19132 0.162967 -11.9888 7.86673 15.8082 -5.69551 3.97569e-016 -4.77083e-015 -3.18055e-015 -3.57812e-015 -4.77083e-015 -3.18055e-015 18.0086 0.479486 0.958448 56.8551 39.4391 9.58161 1.16765 0.159467 11.7604 -4.34575 9.30597 -9.08621 -3.18055e-015 0 -3.97569e-015 -6.36111e-015 -1.59028e-015 -3.97569e-015 15.2259 0.152846 -27.1204 
-16.6069 90.4498 8.6462 -5.82111 9.03605 -129.382 0.385816 2.20819 -1.26696 2.31477 2.19128 2.35391 0.0359586 23.8869 -0.404774 -3.37704 8.68382 -27.6275 -2.03136e-006 -4.944e-007 2.25684e-006 -0.462277 -14.0166 6.17326 -0.112542 34.2907 0.64841 -2.94498 -8.19935 23.0619 -1.75778e-007 -5.55602e-007 -9.28658e-009 0.82139 4.40737 -2.55159 0.821403 4.40732 -2.55154 -5.87735 2.58194 -18.9326 -11.948 -8.29556 27.2498 -29.9367 28.3113 -48.739 -1.53017 0.257206 -15.4917 9.01867 13.8557 -6.002 9.54166e-015 -3.97569e-015 3.18055e-015 9.54166e-015 -6.36111e-015 -0 17.4343 0.407776 0.0884659 58.3507 37.8284 9.12618 1.15713 0.157283 11.653 -3.76078 8.50563 -7.50079 -1.76556e-031 6.36111e-015 1.59028e-015 -1.76556e-031 6.36111e-015 1.59028e-015 14.4446 0.301998 -26.5603 
-17.0926 90.4732 9.49349 -5.71126 9.33632 -133.159 0.310693 2.31567 -1.16684 0.999299 3.1802 3.25036 0.0282464 22.8206 -0.384937 -3.9191 8.61696 -25.4421 -2.03136e-006 -4.944e-007 2.25684e-006 -1.40459 -14.6615 5.99767 -0.109756 34.0095 0.640649 -2.83148 -7.25431 21.8315 -1.75778e-007 -5.55602e-007 -9.28658e-009 0.669417 4.6246 -2.34901 0.669431 4.6246 -2.34904 -5.26667 2.24911 -17.9841 -13.2497 -8.10521 26.0998 -29.1935 28.1288 -47.4177 -1.82958 0.359549 -18.6426 10.216 13.7302 -6.48967 1.19271e-015 3.97569e-015 -0 7.95139e-016 3.57813e-015 -3.18055e-015 16.8661 0.212487 -1.13341 58.857 39.5687 11.4307 0.930377 0.107857 9.34042 -4.51438 1.40066 -6.0347 -3.18055e-015 -3.18055e-015 -0 1.59028e-015 -3.18056e-015 1.59028e-015 13.9001 0.238383 -25.8817 
